<svg xmlns="http://www.w3.org/2000/svg" viewBox="0 0 63.085 63.085" fill="none">
  <rect width="63.085" height="63.085" rx="15.4845" fill="#444CE7"/>
  <path d="M31.9726 45.1833V29.7493L40.1817 18.2822H42.586C44.6263 18.2822 46.3645 18.6719 47.8007 19.4512C49.2368 20.2218 50.3314 21.2945 51.0845 22.6694C51.8463 24.0354 52.2273 25.6117 52.2273 27.3981C52.2273 29.1845 51.842 30.7607 51.0714 32.1268C50.3008 33.4928 49.1843 34.5568 47.7219 35.3187C46.2682 36.0805 44.5081 36.4614 42.4415 36.4614H35.6768V31.9035H41.522C42.6166 31.9035 43.5186 31.7152 44.2279 31.3387C44.9459 30.9534 45.4801 30.4236 45.8304 29.7493C46.1894 29.0663 46.3689 28.2825 46.3689 27.3981C46.3689 26.5049 46.1894 25.7255 45.8304 25.06C45.4801 24.3857 44.9459 23.8647 44.2279 23.4969C43.5098 23.1203 42.5991 22.9321 41.4957 22.9321H37.6602V40.7433L33.6305 45.1833H31.9726Z" fill="white"/>
  <path d="M14.9378 45.1833H11.1679L28.362 22.9715H14.9115L17.7191 18.2822H37.9588L35.5077 21.6579L22.0702 40.494H35.5339L32.922 45.1833H14.9378Z" fill="white"/>
</svg>
