<svg width="294.60" height="83.02" viewBox="-0.52 1.40 294.60 83.02" fill="none" xmlns="http://www.w3.org/2000/svg">
<g filter="url(#filter0_dddd_1103_154929)">
<g clip-path="url(#clip0_1103_154929)">
<rect x="15.4844" y="2.29395" width="63.085" height="63.085" rx="15.4845" fill="#444CE7"/>
<g filter="url(#filter1_dddd_1103_154929)">
<path d="M47.457 47.4773V32.0433L55.6661 20.5762H58.0704C60.1107 20.5762 61.8489 20.9659 63.2851 21.7452C64.7212 22.5158 65.8158 23.5885 66.5689 24.9634C67.3307 26.3294 67.7117 27.9057 67.7117 29.6921C67.7117 31.4785 67.3264 33.0547 66.5558 34.4208C65.7852 35.7868 64.6687 36.8508 63.2063 37.6127C61.7526 38.3745 59.9925 38.7554 57.9259 38.7554H51.1612V34.1975H57.0064C58.101 34.1975 59.003 34.0092 59.7123 33.6327C60.4303 33.2474 60.9645 32.7176 61.3148 32.0433C61.6738 31.3603 61.8533 30.5765 61.8533 29.6921C61.8533 28.7989 61.6738 28.0195 61.3148 27.354C60.9645 26.6797 60.4303 26.1587 59.7123 25.7909C58.9942 25.4143 58.0835 25.2261 56.9801 25.2261H53.1446V43.0373L49.1149 47.4773H47.457Z" fill="white"/>
<path d="M30.4222 47.4773H26.6523L43.8464 25.2655H30.3959L33.2035 20.5762H53.4432L50.9921 23.9519L37.5546 42.788H51.0183L48.4064 47.4773H30.4222Z" fill="white"/>
</g>
<g filter="url(#filter2_f_1103_154929)">
<circle cx="20.36" cy="63.3717" r="19.7857" fill="#FFC56E"/>
</g>
</g>
</g>
<path d="M95.678 49.8838V44.8726L109.553 27.8178C110.368 26.8212 111.21 25.8316 112.08 24.849C112.95 23.8664 113.835 22.8768 114.733 21.8802L115.491 24.0699C114.158 24.0699 112.824 24.0699 111.491 24.0699C110.171 24.0699 108.845 24.0699 107.511 24.0699H96.1412V18.5113H120.629V23.5225L106.985 40.4089C106.143 41.4336 105.279 42.4583 104.395 43.483C103.525 44.4936 102.626 45.5113 101.7 46.536L100.942 44.3252C102.261 44.3252 103.581 44.3252 104.9 44.3252C106.22 44.3252 107.539 44.3252 108.859 44.3252H120.776V49.8838H95.678ZM134.251 50.3891C132.006 50.3891 130.047 49.8978 128.377 48.9152C126.721 47.9186 125.429 46.543 124.503 44.7884C123.59 43.0338 123.134 41.0335 123.134 38.7876C123.134 36.5136 123.597 34.5064 124.524 32.7658C125.464 31.0112 126.756 29.6356 128.398 28.6389C130.04 27.6423 131.921 27.144 134.041 27.144C135.683 27.144 137.171 27.4247 138.505 27.9862C139.838 28.5337 140.989 29.3267 141.958 30.3655C142.926 31.3902 143.67 32.6044 144.19 34.0081C144.723 35.4117 144.99 36.9628 144.99 38.6613V40.3247H125.345V36.3663H142L139.199 37.3137C139.199 36.1908 138.996 35.2222 138.589 34.4081C138.182 33.594 137.599 32.9693 136.841 32.5342C136.097 32.085 135.206 31.8604 134.167 31.8604C133.142 31.8604 132.258 32.085 131.514 32.5342C130.77 32.9693 130.195 33.594 129.788 34.4081C129.381 35.2222 129.177 36.1908 129.177 37.3137V40.0088C129.177 41.1599 129.381 42.1705 129.788 43.0408C130.209 43.8971 130.812 44.5638 131.598 45.0411C132.385 45.5043 133.332 45.7359 134.441 45.7359C135.255 45.7359 135.971 45.6236 136.589 45.399C137.22 45.1604 137.747 44.8305 138.168 44.4094C138.603 43.9743 138.912 43.4689 139.094 42.8934H144.758C144.491 44.3673 143.867 45.6657 142.884 46.7887C141.902 47.9116 140.666 48.7959 139.178 49.4416C137.69 50.0733 136.048 50.3891 134.251 50.3891ZM154.528 37.5243V49.8838H148.316V27.6493H154.422V33.4396H153.37C154.072 31.4744 155.075 29.9444 156.381 28.8495C157.686 27.7406 159.349 27.1861 161.371 27.1861C162.957 27.1861 164.332 27.53 165.498 28.2178C166.663 28.8916 167.561 29.8812 168.193 31.1866C168.838 32.4921 169.161 34.0853 169.161 35.9662V49.8838H162.971V37.1032C162.971 35.6153 162.613 34.4853 161.897 33.7133C161.195 32.9272 160.192 32.5342 158.886 32.5342C158.03 32.5342 157.272 32.7096 156.612 33.0606C155.952 33.4115 155.44 33.9589 155.075 34.7029C154.71 35.4328 154.528 36.3733 154.528 37.5243ZM179.794 37.5243V49.8838H173.583V27.6493H179.689V33.4396H178.636C179.338 31.4744 180.342 29.9444 181.647 28.8495C182.952 27.7406 184.616 27.1861 186.637 27.1861C188.223 27.1861 189.599 27.53 190.764 28.2178C191.929 28.8916 192.827 29.8812 193.459 31.1866C194.105 32.4921 194.428 34.0853 194.428 35.9662V49.8838H188.237V37.1032C188.237 35.6153 187.879 34.4853 187.164 33.7133C186.462 32.9272 185.458 32.5342 184.153 32.5342C183.296 32.5342 182.538 32.7096 181.879 33.0606C181.219 33.4115 180.707 33.9589 180.342 34.7029C179.977 35.4328 179.794 36.3733 179.794 37.5243ZM209.166 50.3891C206.934 50.3891 204.969 49.9048 203.271 48.9363C201.572 47.9678 200.246 46.6132 199.291 44.8726C198.351 43.132 197.881 41.1037 197.881 38.7876C197.881 36.4575 198.351 34.4221 199.291 32.6816C200.246 30.941 201.572 29.5864 203.271 28.6179C204.969 27.6353 206.934 27.144 209.166 27.144C211.426 27.144 213.398 27.6353 215.083 28.6179C216.781 29.5864 218.101 30.941 219.041 32.6816C219.996 34.4221 220.473 36.4575 220.473 38.7876C220.473 41.1037 219.996 43.132 219.041 44.8726C218.101 46.6132 216.781 47.9678 215.083 48.9363C213.398 49.9048 211.426 50.3891 209.166 50.3891ZM209.166 45.3569C210.177 45.3569 211.061 45.0972 211.819 44.5778C212.577 44.0444 213.167 43.2864 213.588 42.3039C214.009 41.3213 214.22 40.1492 214.22 38.7876C214.22 37.398 214.009 36.2118 213.588 35.2293C213.167 34.2467 212.577 33.4957 211.819 32.9763C211.061 32.4429 210.177 32.1762 209.166 32.1762C208.17 32.1762 207.292 32.4429 206.534 32.9763C205.776 33.4957 205.187 34.2467 204.766 35.2293C204.345 36.2118 204.134 37.398 204.134 38.7876C204.134 40.1632 204.345 41.3423 204.766 42.3249C205.187 43.2935 205.776 44.0444 206.534 44.5778C207.292 45.0972 208.17 45.3569 209.166 45.3569ZM221.063 58.6849L226.2 27.6493H229.695L229.19 30.8708H229.211C229.801 30.0146 230.495 29.3197 231.296 28.7863C232.096 28.2529 232.952 27.8599 233.864 27.6072C234.777 27.3546 235.696 27.2282 236.623 27.2282C238.321 27.2282 239.774 27.6072 240.981 28.3652C242.202 29.1092 243.136 30.1549 243.781 31.5025C244.441 32.85 244.771 34.4362 244.771 36.261C244.771 37.9875 244.504 39.686 243.971 41.3564C243.451 43.0268 242.694 44.5357 241.697 45.8833C240.7 47.2308 239.493 48.3046 238.075 49.1047C236.658 49.9048 235.05 50.3049 233.254 50.3049C232.257 50.3049 231.338 50.1575 230.495 49.8627C229.653 49.568 228.909 49.1328 228.264 48.5573C227.618 47.9678 227.099 47.2308 226.705 46.3465H226.684L224.642 58.6849H221.063ZM232.79 47.0834C234.138 47.0834 235.331 46.7746 236.37 46.157C237.423 45.5394 238.307 44.7182 239.023 43.6935C239.739 42.6548 240.279 41.4967 240.644 40.2194C241.009 38.928 241.192 37.6155 241.192 36.282C241.192 34.3449 240.721 32.8851 239.781 31.9025C238.84 30.9199 237.577 30.4286 235.991 30.4286C234.629 30.4286 233.415 30.7445 232.348 31.3761C231.296 31.9938 230.397 32.8219 229.653 33.8607C228.923 34.8854 228.369 36.0294 227.99 37.2927C227.611 38.556 227.421 39.8193 227.421 41.0827C227.421 42.9496 227.892 44.4164 228.832 45.4832C229.773 46.55 231.092 47.0834 232.79 47.0834ZM255.341 50.3049C253.418 50.3049 251.81 49.8206 250.519 48.8521C249.228 47.8695 248.322 46.5149 247.803 44.7884C247.298 43.0478 247.227 41.0405 247.592 38.7666C247.971 36.4785 248.701 34.4713 249.782 32.7447C250.877 31.0042 252.232 29.6496 253.846 28.681C255.46 27.7125 257.229 27.2282 259.152 27.2282C260.12 27.2282 261.026 27.3686 261.868 27.6493C262.724 27.916 263.468 28.3231 264.1 28.8705C264.745 29.418 265.237 30.1058 265.574 30.934H265.616L266.163 27.6493H269.658L265.974 49.8838H262.479L263.026 46.5149H262.984C262.31 47.3712 261.566 48.08 260.752 48.6415C259.938 49.203 259.075 49.6171 258.162 49.8838C257.25 50.1645 256.309 50.3049 255.341 50.3049ZM256.415 47.0834C257.79 47.0834 259.039 46.7395 260.162 46.0517C261.285 45.3639 262.226 44.3954 262.984 43.1461C263.742 41.8968 264.254 40.437 264.521 38.7666C264.802 37.0821 264.767 35.6153 264.416 34.366C264.079 33.1167 263.461 32.1482 262.563 31.4604C261.678 30.7725 260.548 30.4286 259.173 30.4286C257.895 30.4286 256.709 30.7445 255.614 31.3761C254.52 32.0078 253.586 32.9412 252.814 34.1765C252.056 35.4117 251.523 36.9418 251.214 38.7666C250.919 40.5773 250.947 42.1003 251.298 43.3356C251.663 44.5708 252.288 45.5043 253.172 46.1359C254.056 46.7676 255.137 47.0834 256.415 47.0834ZM268.943 58.6849L269.469 55.5266H271.659C272.122 55.5266 272.55 55.4284 272.943 55.2318C273.336 55.0494 273.708 54.7616 274.059 54.3686C274.424 53.9755 274.775 53.4702 275.112 52.8526L276.838 49.6943L271.89 27.6493H275.596L278.27 40.451C278.495 41.5178 278.705 42.5846 278.902 43.6514C279.112 44.7182 279.309 45.785 279.491 46.8518H278.544C279.077 45.785 279.625 44.7182 280.186 43.6514C280.748 42.5846 281.309 41.5178 281.871 40.451L288.713 27.6493H292.693L278.081 54.0106C277.547 54.9651 276.908 55.7933 276.165 56.4952C275.435 57.197 274.634 57.7374 273.764 58.1164C272.908 58.4954 272.031 58.6849 271.132 58.6849C270.767 58.6849 270.402 58.6849 270.037 58.6849C269.672 58.6849 269.307 58.6849 268.943 58.6849Z" fill="white"/>
<defs>
<filter id="filter0_dddd_1103_154929" x="-0.000114202" y="-5.31673e-05" width="90.6139" height="112.979" filterUnits="userSpaceOnUse" color-interpolation-filters="sRGB">
<feFlood flood-opacity="0" result="BackgroundImageFix"/>
<feColorMatrix in="SourceAlpha" type="matrix" values="0 0 0 0 0 0 0 0 0 0 0 0 0 0 0 0 0 0 127 0" result="hardAlpha"/>
<feOffset dy="2.294"/>
<feGaussianBlur stdDeviation="2.294"/>
<feColorMatrix type="matrix" values="0 0 0 0 0 0 0 0 0 0 0 0 0 0 0 0 0 0 0.1 0"/>
<feBlend mode="normal" in2="BackgroundImageFix" result="effect1_dropShadow_1103_154929"/>
<feColorMatrix in="SourceAlpha" type="matrix" values="0 0 0 0 0 0 0 0 0 0 0 0 0 0 0 0 0 0 127 0" result="hardAlpha"/>
<feOffset dx="-0.5735" dy="8.60249"/>
<feGaussianBlur stdDeviation="4.30125"/>
<feColorMatrix type="matrix" values="0 0 0 0 0 0 0 0 0 0 0 0 0 0 0 0 0 0 0.09 0"/>
<feBlend mode="normal" in2="effect1_dropShadow_1103_154929" result="effect2_dropShadow_1103_154929"/>
<feColorMatrix in="SourceAlpha" type="matrix" values="0 0 0 0 0 0 0 0 0 0 0 0 0 0 0 0 0 0 127 0" result="hardAlpha"/>
<feOffset dx="-1.147" dy="18.9255"/>
<feGaussianBlur stdDeviation="5.735"/>
<feColorMatrix type="matrix" values="0 0 0 0 0 0 0 0 0 0 0 0 0 0 0 0 0 0 0.15 0"/>
<feBlend mode="normal" in2="effect2_dropShadow_1103_154929" result="effect3_dropShadow_1103_154929"/>
<feColorMatrix in="SourceAlpha" type="matrix" values="0 0 0 0 0 0 0 0 0 0 0 0 0 0 0 0 0 0 127 0" result="hardAlpha"/>
<feOffset dx="-1.7205" dy="33.8365"/>
<feGaussianBlur stdDeviation="6.882"/>
<feColorMatrix type="matrix" values="0 0 0 0 0 0 0 0 0 0 0 0 0 0 0 0 0 0 0.01 0"/>
<feBlend mode="normal" in2="effect3_dropShadow_1103_154929" result="effect4_dropShadow_1103_154929"/>
<feBlend mode="normal" in="SourceGraphic" in2="effect4_dropShadow_1103_154929" result="shape"/>
</filter>
<filter id="filter1_dddd_1103_154929" x="24.9473" y="18.0187" width="68.3386" height="48.2134" filterUnits="userSpaceOnUse" color-interpolation-filters="sRGB">
<feFlood flood-opacity="0" result="BackgroundImageFix"/>
<feColorMatrix in="SourceAlpha" type="matrix" values="0 0 0 0 0 0 0 0 0 0 0 0 0 0 0 0 0 0 127 0" result="hardAlpha"/>
<feOffset dx="0.852499" dy="0.852499"/>
<feGaussianBlur stdDeviation="1.27875"/>
<feColorMatrix type="matrix" values="0 0 0 0 0 0 0 0 0 0 0 0 0 0 0 0 0 0 0.1 0"/>
<feBlend mode="normal" in2="BackgroundImageFix" result="effect1_dropShadow_1103_154929"/>
<feColorMatrix in="SourceAlpha" type="matrix" values="0 0 0 0 0 0 0 0 0 0 0 0 0 0 0 0 0 0 127 0" result="hardAlpha"/>
<feOffset dx="4.2625" dy="2.5575"/>
<feGaussianBlur stdDeviation="2.5575"/>
<feColorMatrix type="matrix" values="0 0 0 0 0 0 0 0 0 0 0 0 0 0 0 0 0 0 0.09 0"/>
<feBlend mode="normal" in2="effect1_dropShadow_1103_154929" result="effect2_dropShadow_1103_154929"/>
<feColorMatrix in="SourceAlpha" type="matrix" values="0 0 0 0 0 0 0 0 0 0 0 0 0 0 0 0 0 0 127 0" result="hardAlpha"/>
<feOffset dx="10.23" dy="5.9675"/>
<feGaussianBlur stdDeviation="3.41"/>
<feColorMatrix type="matrix" values="0 0 0 0 0 0 0 0 0 0 0 0 0 0 0 0 0 0 0.05 0"/>
<feBlend mode="normal" in2="effect2_dropShadow_1103_154929" result="effect3_dropShadow_1103_154929"/>
<feColorMatrix in="SourceAlpha" type="matrix" values="0 0 0 0 0 0 0 0 0 0 0 0 0 0 0 0 0 0 127 0" result="hardAlpha"/>
<feOffset dx="17.05" dy="10.23"/>
<feGaussianBlur stdDeviation="4.2625"/>
<feColorMatrix type="matrix" values="0 0 0 0 0 0 0 0 0 0 0 0 0 0 0 0 0 0 0.01 0"/>
<feBlend mode="normal" in2="effect3_dropShadow_1103_154929" result="effect4_dropShadow_1103_154929"/>
<feBlend mode="normal" in="SourceGraphic" in2="effect4_dropShadow_1103_154929" result="shape"/>
</filter>
<filter id="filter2_f_1103_154929" x="-25.8068" y="17.205" width="92.3342" height="92.3333" filterUnits="userSpaceOnUse" color-interpolation-filters="sRGB">
<feFlood flood-opacity="0" result="BackgroundImageFix"/>
<feBlend mode="normal" in="SourceGraphic" in2="BackgroundImageFix" result="shape"/>
<feGaussianBlur stdDeviation="13.1905" result="effect1_foregroundBlur_1103_154929"/>
</filter>
<clipPath id="clip0_1103_154929">
<rect x="15.4844" y="2.29395" width="63.085" height="63.085" rx="15.4845" fill="white"/>
</clipPath>
</defs>
</svg>
